<svg xmlns="http://www.w3.org/2000/svg" viewBox="0 0 400 250" width="400" height="250">
<!-- Mr. Mac's Arcade thumbnail · CHESS CABINET · 400×250 editorial dark -->
<defs>
  <linearGradient id="bg" x1="0" y1="0" x2="0" y2="1">
    <stop offset="0" stop-color="#10141d"/>
    <stop offset="1" stop-color="#0a0d14"/>
  </linearGradient>
</defs>
<rect width="400" height="250" fill="url(#bg)"/>
<!-- chess board -->
<rect x="128.0" y="63.0" width="18" height="18" fill="#10141d"/><rect x="146.0" y="63.0" width="18" height="18" fill="#1a2030"/><rect x="164.0" y="63.0" width="18" height="18" fill="#10141d"/><rect x="182.0" y="63.0" width="18" height="18" fill="#1a2030"/><rect x="200.0" y="63.0" width="18" height="18" fill="#10141d"/><rect x="218.0" y="63.0" width="18" height="18" fill="#1a2030"/><rect x="236.0" y="63.0" width="18" height="18" fill="#10141d"/><rect x="254.0" y="63.0" width="18" height="18" fill="#1a2030"/><rect x="128.0" y="81.0" width="18" height="18" fill="#1a2030"/><rect x="146.0" y="81.0" width="18" height="18" fill="#10141d"/><rect x="164.0" y="81.0" width="18" height="18" fill="#1a2030"/><rect x="182.0" y="81.0" width="18" height="18" fill="#10141d"/><rect x="200.0" y="81.0" width="18" height="18" fill="#1a2030"/><rect x="218.0" y="81.0" width="18" height="18" fill="#10141d"/><rect x="236.0" y="81.0" width="18" height="18" fill="#1a2030"/><rect x="254.0" y="81.0" width="18" height="18" fill="#10141d"/><rect x="128.0" y="99.0" width="18" height="18" fill="#10141d"/><rect x="146.0" y="99.0" width="18" height="18" fill="#1a2030"/><rect x="164.0" y="99.0" width="18" height="18" fill="#10141d"/><rect x="182.0" y="99.0" width="18" height="18" fill="#1a2030"/><rect x="200.0" y="99.0" width="18" height="18" fill="#10141d"/><rect x="218.0" y="99.0" width="18" height="18" fill="#1a2030"/><rect x="236.0" y="99.0" width="18" height="18" fill="#10141d"/><rect x="254.0" y="99.0" width="18" height="18" fill="#1a2030"/><rect x="128.0" y="117.0" width="18" height="18" fill="#1a2030"/><rect x="146.0" y="117.0" width="18" height="18" fill="#10141d"/><rect x="164.0" y="117.0" width="18" height="18" fill="#1a2030"/><rect x="182.0" y="117.0" width="18" height="18" fill="#10141d"/><rect x="200.0" y="117.0" width="18" height="18" fill="#1a2030"/><rect x="218.0" y="117.0" width="18" height="18" fill="#10141d"/><rect x="236.0" y="117.0" width="18" height="18" fill="#1a2030"/><rect x="254.0" y="117.0" width="18" height="18" fill="#10141d"/><rect x="128.0" y="135.0" width="18" height="18" fill="#10141d"/><rect x="146.0" y="135.0" width="18" height="18" fill="#1a2030"/><rect x="164.0" y="135.0" width="18" height="18" fill="#10141d"/><rect x="182.0" y="135.0" width="18" height="18" fill="#1a2030"/><rect x="200.0" y="135.0" width="18" height="18" fill="#10141d"/><rect x="218.0" y="135.0" width="18" height="18" fill="#1a2030"/><rect x="236.0" y="135.0" width="18" height="18" fill="#10141d"/><rect x="254.0" y="135.0" width="18" height="18" fill="#1a2030"/><rect x="128.0" y="153.0" width="18" height="18" fill="#1a2030"/><rect x="146.0" y="153.0" width="18" height="18" fill="#10141d"/><rect x="164.0" y="153.0" width="18" height="18" fill="#1a2030"/><rect x="182.0" y="153.0" width="18" height="18" fill="#10141d"/><rect x="200.0" y="153.0" width="18" height="18" fill="#1a2030"/><rect x="218.0" y="153.0" width="18" height="18" fill="#10141d"/><rect x="236.0" y="153.0" width="18" height="18" fill="#1a2030"/><rect x="254.0" y="153.0" width="18" height="18" fill="#10141d"/><rect x="128.0" y="171.0" width="18" height="18" fill="#10141d"/><rect x="146.0" y="171.0" width="18" height="18" fill="#1a2030"/><rect x="164.0" y="171.0" width="18" height="18" fill="#10141d"/><rect x="182.0" y="171.0" width="18" height="18" fill="#1a2030"/><rect x="200.0" y="171.0" width="18" height="18" fill="#10141d"/><rect x="218.0" y="171.0" width="18" height="18" fill="#1a2030"/><rect x="236.0" y="171.0" width="18" height="18" fill="#10141d"/><rect x="254.0" y="171.0" width="18" height="18" fill="#1a2030"/><rect x="128.0" y="189.0" width="18" height="18" fill="#1a2030"/><rect x="146.0" y="189.0" width="18" height="18" fill="#10141d"/><rect x="164.0" y="189.0" width="18" height="18" fill="#1a2030"/><rect x="182.0" y="189.0" width="18" height="18" fill="#10141d"/><rect x="200.0" y="189.0" width="18" height="18" fill="#1a2030"/><rect x="218.0" y="189.0" width="18" height="18" fill="#10141d"/><rect x="236.0" y="189.0" width="18" height="18" fill="#1a2030"/><rect x="254.0" y="189.0" width="18" height="18" fill="#10141d"/><rect x="182.0" y="117.0" width="18" height="18" fill="#f5c451" opacity="0.55"/><rect x="181.0" y="116.0" width="20" height="20" fill="none" stroke="#f5c451" stroke-width="1.2" opacity="0.85"/><rect x="128.0" y="63.0" width="144" height="144" fill="none" stroke="#b8895c" stroke-width="1.2"/>
<g><rect x="205.0" y="196.0" width="8" height="6" fill="#bff8ff" stroke="#0a0d14" stroke-width="0.3"/><rect x="208.0" y="191.0" width="2" height="4" fill="#bff8ff"/><rect x="206.0" y="193.0" width="6" height="2" fill="#bff8ff"/></g><g><polygon points="186.0,202.0 186.0,194.0 188.0,191.0 191.0,195.0 194.0,191.0 196.0,194.0 196.0,202.0" fill="#bff8ff" stroke="#0a0d14" stroke-width="0.3"/></g><g><rect x="133.0" y="196.0" width="8" height="7" fill="#bff8ff" stroke="#0a0d14" stroke-width="0.3"/><rect x="133.0" y="192.0" width="2" height="4" fill="#bff8ff"/><rect x="136.0" y="192.0" width="2" height="4" fill="#bff8ff"/><rect x="139.0" y="192.0" width="2" height="4" fill="#bff8ff"/></g><g><rect x="259.0" y="196.0" width="8" height="7" fill="#bff8ff" stroke="#0a0d14" stroke-width="0.3"/><rect x="259.0" y="192.0" width="2" height="4" fill="#bff8ff"/><rect x="262.0" y="192.0" width="2" height="4" fill="#bff8ff"/><rect x="265.0" y="192.0" width="2" height="4" fill="#bff8ff"/></g><g><polygon points="170.0,202.0 170.0,196.0 173.0,191.0 176.0,196.0 176.0,202.0" fill="#bff8ff" stroke="#0a0d14" stroke-width="0.3"/></g><g><polygon points="224.0,202.0 224.0,196.0 227.0,191.0 230.0,196.0 230.0,202.0" fill="#bff8ff" stroke="#0a0d14" stroke-width="0.3"/></g><g><polygon points="151.0,203.0 151.0,197.0 153.0,192.0 158.0,193.0 159.0,197.0 159.0,203.0" fill="#bff8ff" stroke="#0a0d14" stroke-width="0.3"/></g><g><polygon points="241.0,203.0 241.0,197.0 243.0,192.0 248.0,193.0 249.0,197.0 249.0,203.0" fill="#bff8ff" stroke="#0a0d14" stroke-width="0.3"/></g><g><circle cx="137.0" cy="177.0" r="2.5" fill="#bff8ff" stroke="#0a0d14" stroke-width="0.3"/><polygon points="134.0,184.0 135.0,179.0 139.0,179.0 140.0,184.0" fill="#bff8ff" stroke="#0a0d14" stroke-width="0.3"/></g><g><circle cx="155.0" cy="177.0" r="2.5" fill="#bff8ff" stroke="#0a0d14" stroke-width="0.3"/><polygon points="152.0,184.0 153.0,179.0 157.0,179.0 158.0,184.0" fill="#bff8ff" stroke="#0a0d14" stroke-width="0.3"/></g><g><circle cx="173.0" cy="177.0" r="2.5" fill="#bff8ff" stroke="#0a0d14" stroke-width="0.3"/><polygon points="170.0,184.0 171.0,179.0 175.0,179.0 176.0,184.0" fill="#bff8ff" stroke="#0a0d14" stroke-width="0.3"/></g><g><circle cx="191.0" cy="159.0" r="2.5" fill="#bff8ff" stroke="#0a0d14" stroke-width="0.3"/><polygon points="188.0,166.0 189.0,161.0 193.0,161.0 194.0,166.0" fill="#bff8ff" stroke="#0a0d14" stroke-width="0.3"/></g><g><circle cx="227.0" cy="177.0" r="2.5" fill="#bff8ff" stroke="#0a0d14" stroke-width="0.3"/><polygon points="224.0,184.0 225.0,179.0 229.0,179.0 230.0,184.0" fill="#bff8ff" stroke="#0a0d14" stroke-width="0.3"/></g><g><circle cx="245.0" cy="177.0" r="2.5" fill="#bff8ff" stroke="#0a0d14" stroke-width="0.3"/><polygon points="242.0,184.0 243.0,179.0 247.0,179.0 248.0,184.0" fill="#bff8ff" stroke="#0a0d14" stroke-width="0.3"/></g><g><circle cx="263.0" cy="177.0" r="2.5" fill="#bff8ff" stroke="#0a0d14" stroke-width="0.3"/><polygon points="260.0,184.0 261.0,179.0 265.0,179.0 266.0,184.0" fill="#bff8ff" stroke="#0a0d14" stroke-width="0.3"/></g><g><rect x="205.0" y="70.0" width="8" height="6" fill="#ff7cc8" stroke="#0a0d14" stroke-width="0.3"/><rect x="208.0" y="65.0" width="2" height="4" fill="#ff7cc8"/><rect x="206.0" y="67.0" width="6" height="2" fill="#ff7cc8"/></g><g><polygon points="186.0,76.0 186.0,68.0 188.0,65.0 191.0,69.0 194.0,65.0 196.0,68.0 196.0,76.0" fill="#ff7cc8" stroke="#0a0d14" stroke-width="0.3"/></g><g><rect x="133.0" y="70.0" width="8" height="7" fill="#ff7cc8" stroke="#0a0d14" stroke-width="0.3"/><rect x="133.0" y="66.0" width="2" height="4" fill="#ff7cc8"/><rect x="136.0" y="66.0" width="2" height="4" fill="#ff7cc8"/><rect x="139.0" y="66.0" width="2" height="4" fill="#ff7cc8"/></g><g><rect x="259.0" y="70.0" width="8" height="7" fill="#ff7cc8" stroke="#0a0d14" stroke-width="0.3"/><rect x="259.0" y="66.0" width="2" height="4" fill="#ff7cc8"/><rect x="262.0" y="66.0" width="2" height="4" fill="#ff7cc8"/><rect x="265.0" y="66.0" width="2" height="4" fill="#ff7cc8"/></g><g><polygon points="170.0,76.0 170.0,70.0 173.0,65.0 176.0,70.0 176.0,76.0" fill="#ff7cc8" stroke="#0a0d14" stroke-width="0.3"/></g><g><polygon points="224.0,112.0 224.0,106.0 227.0,101.0 230.0,106.0 230.0,112.0" fill="#ff7cc8" stroke="#0a0d14" stroke-width="0.3"/></g><g><polygon points="151.0,77.0 151.0,71.0 153.0,66.0 158.0,67.0 159.0,71.0 159.0,77.0" fill="#ff7cc8" stroke="#0a0d14" stroke-width="0.3"/></g><g><polygon points="169.0,113.0 169.0,107.0 171.0,102.0 176.0,103.0 177.0,107.0 177.0,113.0" fill="#ff7cc8" stroke="#0a0d14" stroke-width="0.3"/></g><g><circle cx="137.0" cy="87.0" r="2.5" fill="#ff7cc8" stroke="#0a0d14" stroke-width="0.3"/><polygon points="134.0,94.0 135.0,89.0 139.0,89.0 140.0,94.0" fill="#ff7cc8" stroke="#0a0d14" stroke-width="0.3"/></g><g><circle cx="155.0" cy="87.0" r="2.5" fill="#ff7cc8" stroke="#0a0d14" stroke-width="0.3"/><polygon points="152.0,94.0 153.0,89.0 157.0,89.0 158.0,94.0" fill="#ff7cc8" stroke="#0a0d14" stroke-width="0.3"/></g><g><circle cx="209.0" cy="105.0" r="2.5" fill="#ff7cc8" stroke="#0a0d14" stroke-width="0.3"/><polygon points="206.0,112.0 207.0,107.0 211.0,107.0 212.0,112.0" fill="#ff7cc8" stroke="#0a0d14" stroke-width="0.3"/></g><g><circle cx="227.0" cy="87.0" r="2.5" fill="#ff7cc8" stroke="#0a0d14" stroke-width="0.3"/><polygon points="224.0,94.0 225.0,89.0 229.0,89.0 230.0,94.0" fill="#ff7cc8" stroke="#0a0d14" stroke-width="0.3"/></g><g><circle cx="245.0" cy="87.0" r="2.5" fill="#ff7cc8" stroke="#0a0d14" stroke-width="0.3"/><polygon points="242.0,94.0 243.0,89.0 247.0,89.0 248.0,94.0" fill="#ff7cc8" stroke="#0a0d14" stroke-width="0.3"/></g><g><circle cx="263.0" cy="87.0" r="2.5" fill="#ff7cc8" stroke="#0a0d14" stroke-width="0.3"/><polygon points="260.0,94.0 261.0,89.0 265.0,89.0 266.0,94.0" fill="#ff7cc8" stroke="#0a0d14" stroke-width="0.3"/></g>

<!-- scanlines -->
<g opacity="0.06" stroke="white" stroke-width="0.5"><line x1="0" y1="0" x2="400" y2="0"/><line x1="0" y1="3" x2="400" y2="3"/><line x1="0" y1="6" x2="400" y2="6"/><line x1="0" y1="9" x2="400" y2="9"/><line x1="0" y1="12" x2="400" y2="12"/><line x1="0" y1="15" x2="400" y2="15"/><line x1="0" y1="18" x2="400" y2="18"/><line x1="0" y1="21" x2="400" y2="21"/><line x1="0" y1="24" x2="400" y2="24"/><line x1="0" y1="27" x2="400" y2="27"/><line x1="0" y1="30" x2="400" y2="30"/><line x1="0" y1="33" x2="400" y2="33"/><line x1="0" y1="36" x2="400" y2="36"/><line x1="0" y1="39" x2="400" y2="39"/><line x1="0" y1="42" x2="400" y2="42"/><line x1="0" y1="45" x2="400" y2="45"/><line x1="0" y1="48" x2="400" y2="48"/><line x1="0" y1="51" x2="400" y2="51"/><line x1="0" y1="54" x2="400" y2="54"/><line x1="0" y1="57" x2="400" y2="57"/><line x1="0" y1="60" x2="400" y2="60"/><line x1="0" y1="63" x2="400" y2="63"/><line x1="0" y1="66" x2="400" y2="66"/><line x1="0" y1="69" x2="400" y2="69"/><line x1="0" y1="72" x2="400" y2="72"/><line x1="0" y1="75" x2="400" y2="75"/><line x1="0" y1="78" x2="400" y2="78"/><line x1="0" y1="81" x2="400" y2="81"/><line x1="0" y1="84" x2="400" y2="84"/><line x1="0" y1="87" x2="400" y2="87"/><line x1="0" y1="90" x2="400" y2="90"/><line x1="0" y1="93" x2="400" y2="93"/><line x1="0" y1="96" x2="400" y2="96"/><line x1="0" y1="99" x2="400" y2="99"/><line x1="0" y1="102" x2="400" y2="102"/><line x1="0" y1="105" x2="400" y2="105"/><line x1="0" y1="108" x2="400" y2="108"/><line x1="0" y1="111" x2="400" y2="111"/><line x1="0" y1="114" x2="400" y2="114"/><line x1="0" y1="117" x2="400" y2="117"/><line x1="0" y1="120" x2="400" y2="120"/><line x1="0" y1="123" x2="400" y2="123"/><line x1="0" y1="126" x2="400" y2="126"/><line x1="0" y1="129" x2="400" y2="129"/><line x1="0" y1="132" x2="400" y2="132"/><line x1="0" y1="135" x2="400" y2="135"/><line x1="0" y1="138" x2="400" y2="138"/><line x1="0" y1="141" x2="400" y2="141"/><line x1="0" y1="144" x2="400" y2="144"/><line x1="0" y1="147" x2="400" y2="147"/><line x1="0" y1="150" x2="400" y2="150"/><line x1="0" y1="153" x2="400" y2="153"/><line x1="0" y1="156" x2="400" y2="156"/><line x1="0" y1="159" x2="400" y2="159"/><line x1="0" y1="162" x2="400" y2="162"/><line x1="0" y1="165" x2="400" y2="165"/><line x1="0" y1="168" x2="400" y2="168"/><line x1="0" y1="171" x2="400" y2="171"/><line x1="0" y1="174" x2="400" y2="174"/><line x1="0" y1="177" x2="400" y2="177"/><line x1="0" y1="180" x2="400" y2="180"/><line x1="0" y1="183" x2="400" y2="183"/><line x1="0" y1="186" x2="400" y2="186"/><line x1="0" y1="189" x2="400" y2="189"/><line x1="0" y1="192" x2="400" y2="192"/><line x1="0" y1="195" x2="400" y2="195"/><line x1="0" y1="198" x2="400" y2="198"/><line x1="0" y1="201" x2="400" y2="201"/><line x1="0" y1="204" x2="400" y2="204"/><line x1="0" y1="207" x2="400" y2="207"/><line x1="0" y1="210" x2="400" y2="210"/><line x1="0" y1="213" x2="400" y2="213"/><line x1="0" y1="216" x2="400" y2="216"/><line x1="0" y1="219" x2="400" y2="219"/><line x1="0" y1="222" x2="400" y2="222"/><line x1="0" y1="225" x2="400" y2="225"/><line x1="0" y1="228" x2="400" y2="228"/><line x1="0" y1="231" x2="400" y2="231"/><line x1="0" y1="234" x2="400" y2="234"/><line x1="0" y1="237" x2="400" y2="237"/><line x1="0" y1="240" x2="400" y2="240"/><line x1="0" y1="243" x2="400" y2="243"/><line x1="0" y1="246" x2="400" y2="246"/><line x1="0" y1="249" x2="400" y2="249"/></g>
<!-- title -->
<text x="16" y="28" font-family="ui-monospace, 'JetBrains Mono', Menlo, monospace" font-size="14" font-weight="700" fill="#ffffff" letter-spacing="2" style="text-shadow:0 0 4px #bff8ff">CHESS CABINET</text>
<text x="16" y="42" font-family="ui-monospace, 'JetBrains Mono', Menlo, monospace" font-size="8" fill="#bff8ff" letter-spacing="3" opacity="0.7">MID-GAME&#160;TACTICS</text>
<!-- genre tag -->
<text x="384" y="240" text-anchor="end" font-family="ui-monospace, 'JetBrains Mono', Menlo, monospace" font-size="9" fill="#b8895c" letter-spacing="2">CHESS</text>
<!-- border -->
<rect x="1" y="1" width="398" height="248" fill="none" stroke="#b8895c" stroke-width="2"/>
</svg>
