<svg xmlns="http://www.w3.org/2000/svg" viewBox="0 0 400 250" width="400" height="250">
<!-- Mr. Mac's Arcade thumbnail · Sokoban Scribe · 400×250 editorial dark -->
<defs>
  <linearGradient id="bg" x1="0" y1="0" x2="0" y2="1">
    <stop offset="0" stop-color="#10141d"/>
    <stop offset="1" stop-color="#0a0d14"/>
  </linearGradient>
  <linearGradient id="wall" x1="0" y1="0" x2="0" y2="1">
    <stop offset="0" stop-color="#5a3a22"/>
    <stop offset="1" stop-color="#3a2410"/>
  </linearGradient>
  <linearGradient id="scrollG" x1="0" y1="0" x2="0" y2="1">
    <stop offset="0" stop-color="#ffe9a0"/>
    <stop offset="1" stop-color="#f5c451"/>
  </linearGradient>
</defs>
<rect width="400" height="250" fill="url(#bg)"/>
<!-- floor grid 8x5 starting (88,75), cell=28 -->
<g stroke="#3a2a18" stroke-width="0.5" fill="#1a1410">
  <rect x="88" y="75" width="224" height="140"/>
</g>
<g stroke="#3a2a18" stroke-width="0.4" opacity="0.6">
  <line x1="116" y1="75" x2="116" y2="215"/>
  <line x1="144" y1="75" x2="144" y2="215"/>
  <line x1="172" y1="75" x2="172" y2="215"/>
  <line x1="200" y1="75" x2="200" y2="215"/>
  <line x1="228" y1="75" x2="228" y2="215"/>
  <line x1="256" y1="75" x2="256" y2="215"/>
  <line x1="284" y1="75" x2="284" y2="215"/>
  <line x1="88" y1="103" x2="312" y2="103"/>
  <line x1="88" y1="131" x2="312" y2="131"/>
  <line x1="88" y1="159" x2="312" y2="159"/>
  <line x1="88" y1="187" x2="312" y2="187"/>
</g>
<!-- walls (around perimeter and a few inner) -->
<g fill="url(#wall)" stroke="#0a0d14" stroke-width="0.5">
  <!-- top row walls -->
  <rect x="88" y="75" width="28" height="28"/>
  <rect x="116" y="75" width="28" height="28"/>
  <rect x="284" y="75" width="28" height="28"/>
  <!-- bottom row walls -->
  <rect x="88" y="187" width="28" height="28"/>
  <rect x="284" y="187" width="28" height="28"/>
  <!-- left col -->
  <rect x="88" y="103" width="28" height="28"/>
  <rect x="88" y="131" width="28" height="28"/>
  <rect x="88" y="159" width="28" height="28"/>
  <!-- right col -->
  <rect x="284" y="103" width="28" height="28"/>
  <rect x="284" y="131" width="28" height="28"/>
  <rect x="284" y="159" width="28" height="28"/>
  <!-- inner pillar -->
  <rect x="172" y="103" width="28" height="28"/>
  <rect x="228" y="159" width="28" height="28"/>
</g>
<!-- goal shelf marker -->
<rect x="232" y="107" width="20" height="20" fill="none" stroke="#5fd699" stroke-width="1.5" stroke-dasharray="2,2"/>
<circle cx="242" cy="117" r="3" fill="#5fd699" opacity="0.6"/>
<!-- box (scroll) being pushed -->
<g transform="translate(176,135)">
  <rect x="0" y="0" width="20" height="20" rx="2" fill="url(#scrollG)" stroke="#0a0d14" stroke-width="0.8"/>
  <line x1="3" y1="6" x2="17" y2="6" stroke="#8a5d3a" stroke-width="0.7"/>
  <line x1="3" y1="11" x2="17" y2="11" stroke="#8a5d3a" stroke-width="0.7"/>
  <line x1="3" y1="16" x2="13" y2="16" stroke="#8a5d3a" stroke-width="0.7"/>
</g>
<!-- player (scribe) -->
<g transform="translate(150,145)">
  <circle cx="0" cy="-2" r="6" fill="#7af0ff" stroke="#0a0d14" stroke-width="0.8"/>
  <rect x="-5" y="2" width="10" height="10" rx="1" fill="#a78bfa"/>
  <rect x="-2" y="-3" width="4" height="2" fill="#0a0d14"/>
</g>
<!-- arrow showing push direction -->
<g transform="translate(165,145)" opacity="0.7" stroke="#7af0ff" stroke-width="1.2" fill="none">
  <line x1="0" y1="0" x2="9" y2="0"/>
  <polyline points="6,-3 9,0 6,3"/>
</g>
<!-- placed scroll in another goal (lit) -->
<g transform="translate(232,191)">
  <rect x="0" y="0" width="20" height="20" rx="2" fill="url(#scrollG)" stroke="#5fd699" stroke-width="1.2"/>
  <line x1="3" y1="6" x2="17" y2="6" stroke="#8a5d3a" stroke-width="0.7"/>
  <line x1="3" y1="11" x2="17" y2="11" stroke="#8a5d3a" stroke-width="0.7"/>
  <line x1="3" y1="16" x2="13" y2="16" stroke="#8a5d3a" stroke-width="0.7"/>
</g>
<!-- scanlines -->
<g opacity="0.06" stroke="white" stroke-width="0.5">
  <line x1="0" y1="0" x2="400" y2="0"/><line x1="0" y1="3" x2="400" y2="3"/><line x1="0" y1="6" x2="400" y2="6"/><line x1="0" y1="9" x2="400" y2="9"/><line x1="0" y1="12" x2="400" y2="12"/><line x1="0" y1="15" x2="400" y2="15"/><line x1="0" y1="18" x2="400" y2="18"/><line x1="0" y1="21" x2="400" y2="21"/><line x1="0" y1="24" x2="400" y2="24"/><line x1="0" y1="27" x2="400" y2="27"/><line x1="0" y1="30" x2="400" y2="30"/><line x1="0" y1="33" x2="400" y2="33"/><line x1="0" y1="36" x2="400" y2="36"/><line x1="0" y1="39" x2="400" y2="39"/><line x1="0" y1="42" x2="400" y2="42"/><line x1="0" y1="45" x2="400" y2="45"/><line x1="0" y1="48" x2="400" y2="48"/><line x1="0" y1="51" x2="400" y2="51"/><line x1="0" y1="54" x2="400" y2="54"/><line x1="0" y1="57" x2="400" y2="57"/><line x1="0" y1="60" x2="400" y2="60"/><line x1="0" y1="63" x2="400" y2="63"/><line x1="0" y1="66" x2="400" y2="66"/><line x1="0" y1="69" x2="400" y2="69"/><line x1="0" y1="72" x2="400" y2="72"/><line x1="0" y1="75" x2="400" y2="75"/><line x1="0" y1="78" x2="400" y2="78"/><line x1="0" y1="81" x2="400" y2="81"/><line x1="0" y1="84" x2="400" y2="84"/><line x1="0" y1="87" x2="400" y2="87"/><line x1="0" y1="90" x2="400" y2="90"/><line x1="0" y1="93" x2="400" y2="93"/><line x1="0" y1="96" x2="400" y2="96"/><line x1="0" y1="99" x2="400" y2="99"/><line x1="0" y1="102" x2="400" y2="102"/><line x1="0" y1="105" x2="400" y2="105"/><line x1="0" y1="108" x2="400" y2="108"/><line x1="0" y1="111" x2="400" y2="111"/><line x1="0" y1="114" x2="400" y2="114"/><line x1="0" y1="117" x2="400" y2="117"/><line x1="0" y1="120" x2="400" y2="120"/><line x1="0" y1="123" x2="400" y2="123"/><line x1="0" y1="126" x2="400" y2="126"/><line x1="0" y1="129" x2="400" y2="129"/><line x1="0" y1="132" x2="400" y2="132"/><line x1="0" y1="135" x2="400" y2="135"/><line x1="0" y1="138" x2="400" y2="138"/><line x1="0" y1="141" x2="400" y2="141"/><line x1="0" y1="144" x2="400" y2="144"/><line x1="0" y1="147" x2="400" y2="147"/><line x1="0" y1="150" x2="400" y2="150"/><line x1="0" y1="153" x2="400" y2="153"/><line x1="0" y1="156" x2="400" y2="156"/><line x1="0" y1="159" x2="400" y2="159"/><line x1="0" y1="162" x2="400" y2="162"/><line x1="0" y1="165" x2="400" y2="165"/><line x1="0" y1="168" x2="400" y2="168"/><line x1="0" y1="171" x2="400" y2="171"/><line x1="0" y1="174" x2="400" y2="174"/><line x1="0" y1="177" x2="400" y2="177"/><line x1="0" y1="180" x2="400" y2="180"/><line x1="0" y1="183" x2="400" y2="183"/><line x1="0" y1="186" x2="400" y2="186"/><line x1="0" y1="189" x2="400" y2="189"/><line x1="0" y1="192" x2="400" y2="192"/><line x1="0" y1="195" x2="400" y2="195"/><line x1="0" y1="198" x2="400" y2="198"/><line x1="0" y1="201" x2="400" y2="201"/><line x1="0" y1="204" x2="400" y2="204"/><line x1="0" y1="207" x2="400" y2="207"/><line x1="0" y1="210" x2="400" y2="210"/><line x1="0" y1="213" x2="400" y2="213"/><line x1="0" y1="216" x2="400" y2="216"/><line x1="0" y1="219" x2="400" y2="219"/><line x1="0" y1="222" x2="400" y2="222"/><line x1="0" y1="225" x2="400" y2="225"/><line x1="0" y1="228" x2="400" y2="228"/><line x1="0" y1="231" x2="400" y2="231"/><line x1="0" y1="234" x2="400" y2="234"/><line x1="0" y1="237" x2="400" y2="237"/><line x1="0" y1="240" x2="400" y2="240"/><line x1="0" y1="243" x2="400" y2="243"/><line x1="0" y1="246" x2="400" y2="246"/><line x1="0" y1="249" x2="400" y2="249"/>
</g>
<!-- title -->
<text x="16" y="28" font-family="ui-monospace, 'JetBrains Mono', Menlo, monospace" font-size="14" font-weight="700" fill="#ffffff" letter-spacing="2" style="text-shadow:0 0 4px #f5c451">SOKOBAN SCRIBE</text>
<text x="16" y="42" font-family="ui-monospace, 'JetBrains Mono', Menlo, monospace" font-size="8" fill="#f5c451" letter-spacing="3" opacity="0.7">PUSH&#160;THE&#160;ARCHIVE</text>
<!-- genre tag -->
<text x="384" y="240" text-anchor="end" font-family="ui-monospace, 'JetBrains Mono', Menlo, monospace" font-size="9" fill="#b8895c" letter-spacing="2">SOKOBAN</text>
<!-- border -->
<rect x="1" y="1" width="398" height="248" fill="none" stroke="#b8895c" stroke-width="2"/>
</svg>
