<svg xmlns="http://www.w3.org/2000/svg" viewBox="0 0 400 250" width="400" height="250">
<!-- Mr. Mac's Arcade thumbnail · SOLITAIRE HALL · 400×250 editorial dark -->
<defs>
  <linearGradient id="bg" x1="0" y1="0" x2="0" y2="1">
    <stop offset="0" stop-color="#10141d"/>
    <stop offset="1" stop-color="#0a0d14"/>
  </linearGradient>
</defs>
<rect width="400" height="250" fill="url(#bg)"/>
<!-- foundation row (top) -->
<g>
  <rect x="60" y="60" width="36" height="50" rx="3" fill="#10141d" stroke="#5fd699" stroke-width="0.8"/>
  <text x="78" y="89" text-anchor="middle" font-family="monospace" font-size="18" fill="#5fd699">#</text>
  <text x="78" y="78" text-anchor="middle" font-family="monospace" font-size="6" fill="#5fd699" opacity="0.8">SCROLL</text>
  <rect x="100" y="60" width="36" height="50" rx="3" fill="#10141d" stroke="#7af0ff" stroke-width="0.8"/>
  <circle cx="118" cy="85" r="6" fill="none" stroke="#7af0ff" stroke-width="1"/>
  <line x1="112" y1="85" x2="124" y2="85" stroke="#7af0ff" stroke-width="0.6"/>
  <line x1="118" y1="79" x2="118" y2="91" stroke="#7af0ff" stroke-width="0.6"/>
  <text x="118" y="74" text-anchor="middle" font-family="monospace" font-size="6" fill="#7af0ff" opacity="0.8">ATOM</text>
  <rect x="140" y="60" width="36" height="50" rx="3" fill="#10141d" stroke="#f5c451" stroke-width="0.8"/>
  <circle cx="158" cy="85" r="7" fill="none" stroke="#f5c451" stroke-width="0.7"/>
  <polygon points="158,79 161,82 158,91 155,82" fill="#f5c451"/>
  <text x="158" y="74" text-anchor="middle" font-family="monospace" font-size="6" fill="#f5c451" opacity="0.8">COMP</text>
  <rect x="180" y="60" width="36" height="50" rx="3" fill="#10141d" stroke="#ff7cc8" stroke-width="0.8"/>
  <polygon points="198,76 192,90 204,90" fill="none" stroke="#ff7cc8" stroke-width="0.8"/>
  <circle cx="198" cy="92" r="2" fill="#ff7cc8"/>
  <text x="198" y="74" text-anchor="middle" font-family="monospace" font-size="6" fill="#ff7cc8" opacity="0.8">PALETTE</text>
</g>
<!-- stock + waste pile (top right) -->
<rect x="280" y="60" width="36" height="50" rx="3" fill="#b892ff" stroke="#ffffff" stroke-width="0.5"/>
<rect x="284" y="64" width="28" height="42" rx="2" fill="none" stroke="#bff8ff" stroke-width="0.4" opacity="0.5"/>
<rect x="324" y="60" width="36" height="50" rx="3" fill="#10141d" stroke="#b892ff" stroke-width="0.5" opacity="0.5"/>
<text x="342" y="93" text-anchor="middle" font-family="monospace" font-size="22" font-weight="700" fill="#bff8ff">A</text>
<!-- 7 tableau columns (cascading) -->
<g>
  <!-- column 1: 1 card -->
  <rect x="30" y="130" width="36" height="50" rx="3" fill="#7af0ff" opacity="0.85" stroke="#ffffff" stroke-width="0.5"/>
  <text x="48" y="158" text-anchor="middle" font-family="monospace" font-size="14" font-weight="700" fill="#0a0d14">2</text>
  <!-- column 2 -->
  <rect x="78" y="130" width="36" height="14" rx="3" fill="#b892ff" stroke="#ffffff" stroke-width="0.4"/>
  <rect x="78" y="146" width="36" height="50" rx="3" fill="#ff7cc8" opacity="0.85" stroke="#ffffff" stroke-width="0.5"/>
  <text x="96" y="174" text-anchor="middle" font-family="monospace" font-size="14" font-weight="700" fill="#0a0d14">7</text>
  <!-- column 3 -->
  <rect x="126" y="130" width="36" height="14" rx="3" fill="#b892ff" stroke="#ffffff" stroke-width="0.4"/>
  <rect x="126" y="146" width="36" height="14" rx="3" fill="#b892ff" stroke="#ffffff" stroke-width="0.4"/>
  <rect x="126" y="162" width="36" height="50" rx="3" fill="#5fd699" opacity="0.9" stroke="#ffffff" stroke-width="0.5"/>
  <text x="144" y="190" text-anchor="middle" font-family="monospace" font-size="14" font-weight="700" fill="#0a0d14">9</text>
  <!-- column 4 -->
  <rect x="174" y="130" width="36" height="14" rx="3" fill="#b892ff" stroke="#ffffff" stroke-width="0.4"/>
  <rect x="174" y="146" width="36" height="14" rx="3" fill="#b892ff" stroke="#ffffff" stroke-width="0.4"/>
  <rect x="174" y="162" width="36" height="14" rx="3" fill="#b892ff" stroke="#ffffff" stroke-width="0.4"/>
  <rect x="174" y="178" width="36" height="38" rx="3" fill="#f5c451" opacity="0.9" stroke="#ffffff" stroke-width="0.5"/>
  <text x="192" y="202" text-anchor="middle" font-family="monospace" font-size="13" font-weight="700" fill="#0a0d14">J</text>
  <!-- column 5 -->
  <rect x="222" y="130" width="36" height="14" rx="3" fill="#b892ff" stroke="#ffffff" stroke-width="0.4"/>
  <rect x="222" y="146" width="36" height="14" rx="3" fill="#b892ff" stroke="#ffffff" stroke-width="0.4"/>
  <rect x="222" y="162" width="36" height="14" rx="3" fill="#b892ff" stroke="#ffffff" stroke-width="0.4"/>
  <rect x="222" y="178" width="36" height="14" rx="3" fill="#b892ff" stroke="#ffffff" stroke-width="0.4"/>
  <rect x="222" y="194" width="36" height="22" rx="3" fill="#7af0ff" opacity="0.9" stroke="#ffffff" stroke-width="0.5"/>
  <text x="240" y="210" text-anchor="middle" font-family="monospace" font-size="11" font-weight="700" fill="#0a0d14">Q</text>
  <!-- column 6 -->
  <rect x="270" y="130" width="36" height="14" rx="3" fill="#b892ff" stroke="#ffffff" stroke-width="0.4"/>
  <rect x="270" y="146" width="36" height="14" rx="3" fill="#b892ff" stroke="#ffffff" stroke-width="0.4"/>
  <rect x="270" y="162" width="36" height="14" rx="3" fill="#b892ff" stroke="#ffffff" stroke-width="0.4"/>
  <rect x="270" y="178" width="36" height="14" rx="3" fill="#b892ff" stroke="#ffffff" stroke-width="0.4"/>
  <rect x="270" y="194" width="36" height="14" rx="3" fill="#b892ff" stroke="#ffffff" stroke-width="0.4"/>
  <rect x="270" y="210" width="36" height="6" rx="2" fill="#ff7cc8" opacity="0.9" stroke="#ffffff" stroke-width="0.5"/>
  <!-- column 7 -->
  <rect x="318" y="130" width="36" height="14" rx="3" fill="#b892ff" stroke="#ffffff" stroke-width="0.4"/>
  <rect x="318" y="146" width="36" height="14" rx="3" fill="#b892ff" stroke="#ffffff" stroke-width="0.4"/>
  <rect x="318" y="162" width="36" height="14" rx="3" fill="#b892ff" stroke="#ffffff" stroke-width="0.4"/>
  <rect x="318" y="178" width="36" height="14" rx="3" fill="#b892ff" stroke="#ffffff" stroke-width="0.4"/>
  <rect x="318" y="194" width="36" height="14" rx="3" fill="#b892ff" stroke="#ffffff" stroke-width="0.4"/>
  <rect x="318" y="210" width="36" height="6" rx="2" fill="#b892ff" stroke="#ffffff" stroke-width="0.4"/>
</g>

<!-- scanlines -->
<g opacity="0.06" stroke="white" stroke-width="0.5"><line x1="0" y1="0" x2="400" y2="0"/><line x1="0" y1="3" x2="400" y2="3"/><line x1="0" y1="6" x2="400" y2="6"/><line x1="0" y1="9" x2="400" y2="9"/><line x1="0" y1="12" x2="400" y2="12"/><line x1="0" y1="15" x2="400" y2="15"/><line x1="0" y1="18" x2="400" y2="18"/><line x1="0" y1="21" x2="400" y2="21"/><line x1="0" y1="24" x2="400" y2="24"/><line x1="0" y1="27" x2="400" y2="27"/><line x1="0" y1="30" x2="400" y2="30"/><line x1="0" y1="33" x2="400" y2="33"/><line x1="0" y1="36" x2="400" y2="36"/><line x1="0" y1="39" x2="400" y2="39"/><line x1="0" y1="42" x2="400" y2="42"/><line x1="0" y1="45" x2="400" y2="45"/><line x1="0" y1="48" x2="400" y2="48"/><line x1="0" y1="51" x2="400" y2="51"/><line x1="0" y1="54" x2="400" y2="54"/><line x1="0" y1="57" x2="400" y2="57"/><line x1="0" y1="60" x2="400" y2="60"/><line x1="0" y1="63" x2="400" y2="63"/><line x1="0" y1="66" x2="400" y2="66"/><line x1="0" y1="69" x2="400" y2="69"/><line x1="0" y1="72" x2="400" y2="72"/><line x1="0" y1="75" x2="400" y2="75"/><line x1="0" y1="78" x2="400" y2="78"/><line x1="0" y1="81" x2="400" y2="81"/><line x1="0" y1="84" x2="400" y2="84"/><line x1="0" y1="87" x2="400" y2="87"/><line x1="0" y1="90" x2="400" y2="90"/><line x1="0" y1="93" x2="400" y2="93"/><line x1="0" y1="96" x2="400" y2="96"/><line x1="0" y1="99" x2="400" y2="99"/><line x1="0" y1="102" x2="400" y2="102"/><line x1="0" y1="105" x2="400" y2="105"/><line x1="0" y1="108" x2="400" y2="108"/><line x1="0" y1="111" x2="400" y2="111"/><line x1="0" y1="114" x2="400" y2="114"/><line x1="0" y1="117" x2="400" y2="117"/><line x1="0" y1="120" x2="400" y2="120"/><line x1="0" y1="123" x2="400" y2="123"/><line x1="0" y1="126" x2="400" y2="126"/><line x1="0" y1="129" x2="400" y2="129"/><line x1="0" y1="132" x2="400" y2="132"/><line x1="0" y1="135" x2="400" y2="135"/><line x1="0" y1="138" x2="400" y2="138"/><line x1="0" y1="141" x2="400" y2="141"/><line x1="0" y1="144" x2="400" y2="144"/><line x1="0" y1="147" x2="400" y2="147"/><line x1="0" y1="150" x2="400" y2="150"/><line x1="0" y1="153" x2="400" y2="153"/><line x1="0" y1="156" x2="400" y2="156"/><line x1="0" y1="159" x2="400" y2="159"/><line x1="0" y1="162" x2="400" y2="162"/><line x1="0" y1="165" x2="400" y2="165"/><line x1="0" y1="168" x2="400" y2="168"/><line x1="0" y1="171" x2="400" y2="171"/><line x1="0" y1="174" x2="400" y2="174"/><line x1="0" y1="177" x2="400" y2="177"/><line x1="0" y1="180" x2="400" y2="180"/><line x1="0" y1="183" x2="400" y2="183"/><line x1="0" y1="186" x2="400" y2="186"/><line x1="0" y1="189" x2="400" y2="189"/><line x1="0" y1="192" x2="400" y2="192"/><line x1="0" y1="195" x2="400" y2="195"/><line x1="0" y1="198" x2="400" y2="198"/><line x1="0" y1="201" x2="400" y2="201"/><line x1="0" y1="204" x2="400" y2="204"/><line x1="0" y1="207" x2="400" y2="207"/><line x1="0" y1="210" x2="400" y2="210"/><line x1="0" y1="213" x2="400" y2="213"/><line x1="0" y1="216" x2="400" y2="216"/><line x1="0" y1="219" x2="400" y2="219"/><line x1="0" y1="222" x2="400" y2="222"/><line x1="0" y1="225" x2="400" y2="225"/><line x1="0" y1="228" x2="400" y2="228"/><line x1="0" y1="231" x2="400" y2="231"/><line x1="0" y1="234" x2="400" y2="234"/><line x1="0" y1="237" x2="400" y2="237"/><line x1="0" y1="240" x2="400" y2="240"/><line x1="0" y1="243" x2="400" y2="243"/><line x1="0" y1="246" x2="400" y2="246"/><line x1="0" y1="249" x2="400" y2="249"/></g>
<!-- title -->
<text x="16" y="28" font-family="ui-monospace, 'JetBrains Mono', Menlo, monospace" font-size="14" font-weight="700" fill="#ffffff" letter-spacing="2" style="text-shadow:0 0 4px #bff8ff">SOLITAIRE HALL</text>
<text x="16" y="42" font-family="ui-monospace, 'JetBrains Mono', Menlo, monospace" font-size="8" fill="#bff8ff" letter-spacing="3" opacity="0.7">KLONDIKE&#160;CASCADE</text>
<!-- genre tag -->
<text x="384" y="240" text-anchor="end" font-family="ui-monospace, 'JetBrains Mono', Menlo, monospace" font-size="9" fill="#b8895c" letter-spacing="2">SOLITAIRE</text>
<!-- border -->
<rect x="1" y="1" width="398" height="248" fill="none" stroke="#b8895c" stroke-width="2"/>
</svg>
