<svg xmlns="http://www.w3.org/2000/svg" viewBox="0 0 400 250" width="400" height="250">
<!-- Mr. Mac's Arcade thumbnail · Stellar Drift · 400×250 editorial dark -->
<defs>
  <linearGradient id="bg" x1="0" y1="0" x2="0" y2="1">
    <stop offset="0" stop-color="#10141d"/>
    <stop offset="1" stop-color="#0a0d14"/>
  </linearGradient>
  <radialGradient id="glow" cx="0.5" cy="0.5" r="0.5">
    <stop offset="0" stop-color="#7af0ff" stop-opacity="0.5"/>
    <stop offset="1" stop-color="#7af0ff" stop-opacity="0"/>
  </radialGradient>
</defs>
<rect width="400" height="250" fill="url(#bg)"/>
<!-- starfield -->
<g fill="#ffffff">
  <circle cx="30" cy="60" r="0.8"/>
  <circle cx="65" cy="35" r="0.6"/>
  <circle cx="120" cy="55" r="1.2"/>
  <circle cx="170" cy="80" r="0.6"/>
  <circle cx="220" cy="40" r="0.9"/>
  <circle cx="280" cy="70" r="0.7"/>
  <circle cx="340" cy="50" r="1.1"/>
  <circle cx="370" cy="100" r="0.6"/>
  <circle cx="50" cy="155" r="0.9"/>
  <circle cx="95" cy="200" r="0.7"/>
  <circle cx="160" cy="210" r="1.0"/>
  <circle cx="245" cy="180" r="0.6"/>
  <circle cx="320" cy="200" r="0.8"/>
  <circle cx="370" cy="170" r="1.1"/>
  <circle cx="80" cy="120" r="0.6"/>
  <circle cx="385" cy="220" r="0.9"/>
</g>
<!-- ship glow -->
<circle cx="200" cy="135" r="55" fill="url(#glow)"/>
<!-- ship vector triangle -->
<polygon points="200,108 218,148 200,140 182,148" fill="none" stroke="#7af0ff" stroke-width="2" stroke-linejoin="round"/>
<!-- thrust flame -->
<polygon points="195,148 200,162 205,148" fill="#ff8e6f" opacity="0.8"/>
<!-- asteroids -->
<polygon points="80,90 95,82 108,88 110,102 100,112 86,110 76,100" fill="none" stroke="#ffffff" stroke-width="1.5" opacity="0.85"/>
<polygon points="305,170 320,164 333,170 336,184 326,194 312,192 302,180" fill="none" stroke="#ffffff" stroke-width="1.5" opacity="0.85"/>
<polygon points="115,185 124,180 134,184 136,194 128,202 118,200 112,192" fill="none" stroke="#ffffff" stroke-width="1.2" opacity="0.7"/>
<polygon points="305,80 314,76 322,78 326,86 322,94 312,96 304,92" fill="none" stroke="#ffffff" stroke-width="1.2" opacity="0.7"/>
<!-- bullet -->
<circle cx="200" cy="92" r="2" fill="#7af0ff"/>
<line x1="200" y1="100" x2="200" y2="108" stroke="#7af0ff" stroke-width="1" opacity="0.5"/>
<!-- scanlines -->
<g opacity="0.06" stroke="white" stroke-width="0.5">
  <line x1="0" y1="0" x2="400" y2="0"/><line x1="0" y1="3" x2="400" y2="3"/><line x1="0" y1="6" x2="400" y2="6"/><line x1="0" y1="9" x2="400" y2="9"/><line x1="0" y1="12" x2="400" y2="12"/><line x1="0" y1="15" x2="400" y2="15"/><line x1="0" y1="18" x2="400" y2="18"/><line x1="0" y1="21" x2="400" y2="21"/><line x1="0" y1="24" x2="400" y2="24"/><line x1="0" y1="27" x2="400" y2="27"/><line x1="0" y1="30" x2="400" y2="30"/><line x1="0" y1="33" x2="400" y2="33"/><line x1="0" y1="36" x2="400" y2="36"/><line x1="0" y1="39" x2="400" y2="39"/><line x1="0" y1="42" x2="400" y2="42"/><line x1="0" y1="45" x2="400" y2="45"/><line x1="0" y1="48" x2="400" y2="48"/><line x1="0" y1="51" x2="400" y2="51"/><line x1="0" y1="54" x2="400" y2="54"/><line x1="0" y1="57" x2="400" y2="57"/><line x1="0" y1="60" x2="400" y2="60"/><line x1="0" y1="63" x2="400" y2="63"/><line x1="0" y1="66" x2="400" y2="66"/><line x1="0" y1="69" x2="400" y2="69"/><line x1="0" y1="72" x2="400" y2="72"/><line x1="0" y1="75" x2="400" y2="75"/><line x1="0" y1="78" x2="400" y2="78"/><line x1="0" y1="81" x2="400" y2="81"/><line x1="0" y1="84" x2="400" y2="84"/><line x1="0" y1="87" x2="400" y2="87"/><line x1="0" y1="90" x2="400" y2="90"/><line x1="0" y1="93" x2="400" y2="93"/><line x1="0" y1="96" x2="400" y2="96"/><line x1="0" y1="99" x2="400" y2="99"/><line x1="0" y1="102" x2="400" y2="102"/><line x1="0" y1="105" x2="400" y2="105"/><line x1="0" y1="108" x2="400" y2="108"/><line x1="0" y1="111" x2="400" y2="111"/><line x1="0" y1="114" x2="400" y2="114"/><line x1="0" y1="117" x2="400" y2="117"/><line x1="0" y1="120" x2="400" y2="120"/><line x1="0" y1="123" x2="400" y2="123"/><line x1="0" y1="126" x2="400" y2="126"/><line x1="0" y1="129" x2="400" y2="129"/><line x1="0" y1="132" x2="400" y2="132"/><line x1="0" y1="135" x2="400" y2="135"/><line x1="0" y1="138" x2="400" y2="138"/><line x1="0" y1="141" x2="400" y2="141"/><line x1="0" y1="144" x2="400" y2="144"/><line x1="0" y1="147" x2="400" y2="147"/><line x1="0" y1="150" x2="400" y2="150"/><line x1="0" y1="153" x2="400" y2="153"/><line x1="0" y1="156" x2="400" y2="156"/><line x1="0" y1="159" x2="400" y2="159"/><line x1="0" y1="162" x2="400" y2="162"/><line x1="0" y1="165" x2="400" y2="165"/><line x1="0" y1="168" x2="400" y2="168"/><line x1="0" y1="171" x2="400" y2="171"/><line x1="0" y1="174" x2="400" y2="174"/><line x1="0" y1="177" x2="400" y2="177"/><line x1="0" y1="180" x2="400" y2="180"/><line x1="0" y1="183" x2="400" y2="183"/><line x1="0" y1="186" x2="400" y2="186"/><line x1="0" y1="189" x2="400" y2="189"/><line x1="0" y1="192" x2="400" y2="192"/><line x1="0" y1="195" x2="400" y2="195"/><line x1="0" y1="198" x2="400" y2="198"/><line x1="0" y1="201" x2="400" y2="201"/><line x1="0" y1="204" x2="400" y2="204"/><line x1="0" y1="207" x2="400" y2="207"/><line x1="0" y1="210" x2="400" y2="210"/><line x1="0" y1="213" x2="400" y2="213"/><line x1="0" y1="216" x2="400" y2="216"/><line x1="0" y1="219" x2="400" y2="219"/><line x1="0" y1="222" x2="400" y2="222"/><line x1="0" y1="225" x2="400" y2="225"/><line x1="0" y1="228" x2="400" y2="228"/><line x1="0" y1="231" x2="400" y2="231"/><line x1="0" y1="234" x2="400" y2="234"/><line x1="0" y1="237" x2="400" y2="237"/><line x1="0" y1="240" x2="400" y2="240"/><line x1="0" y1="243" x2="400" y2="243"/><line x1="0" y1="246" x2="400" y2="246"/><line x1="0" y1="249" x2="400" y2="249"/>
</g>
<!-- title -->
<text x="16" y="28" font-family="ui-monospace, 'JetBrains Mono', Menlo, monospace" font-size="14" font-weight="700" fill="#ffffff" letter-spacing="2" style="text-shadow:0 0 4px #7af0ff">STELLAR DRIFT</text>
<text x="16" y="42" font-family="ui-monospace, 'JetBrains Mono', Menlo, monospace" font-size="8" fill="#7af0ff" letter-spacing="3" opacity="0.7">VECTOR&#160;SURVIVAL</text>
<!-- genre tag -->
<text x="384" y="240" text-anchor="end" font-family="ui-monospace, 'JetBrains Mono', Menlo, monospace" font-size="9" fill="#b8895c" letter-spacing="2">ASTEROIDS</text>
<!-- border -->
<rect x="1" y="1" width="398" height="248" fill="none" stroke="#b8895c" stroke-width="2"/>
</svg>
