<svg xmlns="http://www.w3.org/2000/svg" viewBox="0 0 400 250" width="400" height="250">
<!-- Mr. Mac's Arcade thumbnail · SUDOKU SCRIBE · 400×250 editorial dark -->
<defs>
  <linearGradient id="bg" x1="0" y1="0" x2="0" y2="1">
    <stop offset="0" stop-color="#10141d"/>
    <stop offset="1" stop-color="#0a0d14"/>
  </linearGradient>
</defs>
<rect width="400" height="250" fill="url(#bg)"/>
<!-- 9×9 sudoku grid -->
<text x="136.0" y="74.5" text-anchor="middle" font-family="monospace" font-size="9" font-weight="700" fill="#bff8ff">5</text><text x="200.0" y="74.5" text-anchor="middle" font-family="monospace" font-size="9" font-weight="700" fill="#bff8ff">7</text><text x="232.0" y="74.5" text-anchor="middle" font-family="monospace" font-size="9" font-weight="700" fill="#bff8ff">4</text><text x="152.0" y="90.5" text-anchor="middle" font-family="monospace" font-size="9" font-weight="700" fill="#bff8ff">3</text><text x="184.0" y="90.5" text-anchor="middle" font-family="monospace" font-size="9" font-weight="700" fill="#bff8ff">6</text><text x="264.0" y="90.5" text-anchor="middle" font-family="monospace" font-size="9" font-weight="700" fill="#bff8ff">1</text><text x="168.0" y="106.5" text-anchor="middle" font-family="monospace" font-size="9" font-weight="700" fill="#bff8ff">8</text><text x="216.0" y="106.5" text-anchor="middle" font-family="monospace" font-size="9" font-weight="700" fill="#bff8ff">2</text><text x="248.0" y="106.5" text-anchor="middle" font-family="monospace" font-size="9" font-weight="700" fill="#bff8ff">9</text><text x="136.0" y="122.5" text-anchor="middle" font-family="monospace" font-size="9" font-weight="700" fill="#bff8ff">1</text><text x="200.0" y="122.5" text-anchor="middle" font-family="monospace" font-size="9" font-weight="700" fill="#bff8ff">4</text><text x="264.0" y="122.5" text-anchor="middle" font-family="monospace" font-size="9" font-weight="700" fill="#bff8ff">5</text><text x="152.0" y="138.5" text-anchor="middle" font-family="monospace" font-size="9" font-weight="700" fill="#bff8ff">7</text><text x="184.0" y="138.5" text-anchor="middle" font-family="monospace" font-size="9" font-weight="700" fill="#bff8ff">8</text><rect x="192.0" y="127.0" width="16" height="16" fill="#f5c451" opacity="0.9"/><rect x="195.0" y="132.0" width="10" height="2" fill="#0a0d14"/><rect x="199.0" y="129.0" width="2" height="3" fill="#0a0d14"/><rect x="197.0" y="136.0" width="6" height="4" fill="#0a0d14"/><text x="216.0" y="138.5" text-anchor="middle" font-family="monospace" font-size="9" font-weight="700" fill="#bff8ff">6</text><text x="248.0" y="138.5" text-anchor="middle" font-family="monospace" font-size="9" font-weight="700" fill="#bff8ff">2</text><text x="136.0" y="154.5" text-anchor="middle" font-family="monospace" font-size="9" font-weight="700" fill="#bff8ff">4</text><text x="200.0" y="154.5" text-anchor="middle" font-family="monospace" font-size="9" font-weight="700" fill="#bff8ff">3</text><text x="264.0" y="154.5" text-anchor="middle" font-family="monospace" font-size="9" font-weight="700" fill="#bff8ff">7</text><text x="152.0" y="170.5" text-anchor="middle" font-family="monospace" font-size="9" font-weight="700" fill="#bff8ff">2</text><text x="184.0" y="170.5" text-anchor="middle" font-family="monospace" font-size="9" font-weight="700" fill="#bff8ff">9</text><text x="264.0" y="170.5" text-anchor="middle" font-family="monospace" font-size="9" font-weight="700" fill="#bff8ff">6</text><text x="136.0" y="186.5" text-anchor="middle" font-family="monospace" font-size="9" font-weight="700" fill="#bff8ff">8</text><text x="216.0" y="186.5" text-anchor="middle" font-family="monospace" font-size="9" font-weight="700" fill="#bff8ff">1</text><text x="248.0" y="186.5" text-anchor="middle" font-family="monospace" font-size="9" font-weight="700" fill="#bff8ff">4</text><text x="168.0" y="202.5" text-anchor="middle" font-family="monospace" font-size="9" font-weight="700" fill="#bff8ff">6</text><text x="200.0" y="202.5" text-anchor="middle" font-family="monospace" font-size="9" font-weight="700" fill="#bff8ff">5</text><text x="264.0" y="202.5" text-anchor="middle" font-family="monospace" font-size="9" font-weight="700" fill="#bff8ff">3</text>
<line x1="128.0" y1="63.0" x2="128.0" y2="207.0" stroke="#7af0ff" stroke-width="1.4" opacity="0.85"/><line x1="128.0" y1="63.0" x2="272.0" y2="63.0" stroke="#7af0ff" stroke-width="1.4" opacity="0.85"/><line x1="144.0" y1="63.0" x2="144.0" y2="207.0" stroke="#7af0ff" stroke-width="0.4" opacity="0.4"/><line x1="128.0" y1="79.0" x2="272.0" y2="79.0" stroke="#7af0ff" stroke-width="0.4" opacity="0.4"/><line x1="160.0" y1="63.0" x2="160.0" y2="207.0" stroke="#7af0ff" stroke-width="0.4" opacity="0.4"/><line x1="128.0" y1="95.0" x2="272.0" y2="95.0" stroke="#7af0ff" stroke-width="0.4" opacity="0.4"/><line x1="176.0" y1="63.0" x2="176.0" y2="207.0" stroke="#7af0ff" stroke-width="1.4" opacity="0.85"/><line x1="128.0" y1="111.0" x2="272.0" y2="111.0" stroke="#7af0ff" stroke-width="1.4" opacity="0.85"/><line x1="192.0" y1="63.0" x2="192.0" y2="207.0" stroke="#7af0ff" stroke-width="0.4" opacity="0.4"/><line x1="128.0" y1="127.0" x2="272.0" y2="127.0" stroke="#7af0ff" stroke-width="0.4" opacity="0.4"/><line x1="208.0" y1="63.0" x2="208.0" y2="207.0" stroke="#7af0ff" stroke-width="0.4" opacity="0.4"/><line x1="128.0" y1="143.0" x2="272.0" y2="143.0" stroke="#7af0ff" stroke-width="0.4" opacity="0.4"/><line x1="224.0" y1="63.0" x2="224.0" y2="207.0" stroke="#7af0ff" stroke-width="1.4" opacity="0.85"/><line x1="128.0" y1="159.0" x2="272.0" y2="159.0" stroke="#7af0ff" stroke-width="1.4" opacity="0.85"/><line x1="240.0" y1="63.0" x2="240.0" y2="207.0" stroke="#7af0ff" stroke-width="0.4" opacity="0.4"/><line x1="128.0" y1="175.0" x2="272.0" y2="175.0" stroke="#7af0ff" stroke-width="0.4" opacity="0.4"/><line x1="256.0" y1="63.0" x2="256.0" y2="207.0" stroke="#7af0ff" stroke-width="0.4" opacity="0.4"/><line x1="128.0" y1="191.0" x2="272.0" y2="191.0" stroke="#7af0ff" stroke-width="0.4" opacity="0.4"/><line x1="272.0" y1="63.0" x2="272.0" y2="207.0" stroke="#7af0ff" stroke-width="1.4" opacity="0.85"/><line x1="128.0" y1="207.0" x2="272.0" y2="207.0" stroke="#7af0ff" stroke-width="1.4" opacity="0.85"/>

<!-- scanlines -->
<g opacity="0.06" stroke="white" stroke-width="0.5"><line x1="0" y1="0" x2="400" y2="0"/><line x1="0" y1="3" x2="400" y2="3"/><line x1="0" y1="6" x2="400" y2="6"/><line x1="0" y1="9" x2="400" y2="9"/><line x1="0" y1="12" x2="400" y2="12"/><line x1="0" y1="15" x2="400" y2="15"/><line x1="0" y1="18" x2="400" y2="18"/><line x1="0" y1="21" x2="400" y2="21"/><line x1="0" y1="24" x2="400" y2="24"/><line x1="0" y1="27" x2="400" y2="27"/><line x1="0" y1="30" x2="400" y2="30"/><line x1="0" y1="33" x2="400" y2="33"/><line x1="0" y1="36" x2="400" y2="36"/><line x1="0" y1="39" x2="400" y2="39"/><line x1="0" y1="42" x2="400" y2="42"/><line x1="0" y1="45" x2="400" y2="45"/><line x1="0" y1="48" x2="400" y2="48"/><line x1="0" y1="51" x2="400" y2="51"/><line x1="0" y1="54" x2="400" y2="54"/><line x1="0" y1="57" x2="400" y2="57"/><line x1="0" y1="60" x2="400" y2="60"/><line x1="0" y1="63" x2="400" y2="63"/><line x1="0" y1="66" x2="400" y2="66"/><line x1="0" y1="69" x2="400" y2="69"/><line x1="0" y1="72" x2="400" y2="72"/><line x1="0" y1="75" x2="400" y2="75"/><line x1="0" y1="78" x2="400" y2="78"/><line x1="0" y1="81" x2="400" y2="81"/><line x1="0" y1="84" x2="400" y2="84"/><line x1="0" y1="87" x2="400" y2="87"/><line x1="0" y1="90" x2="400" y2="90"/><line x1="0" y1="93" x2="400" y2="93"/><line x1="0" y1="96" x2="400" y2="96"/><line x1="0" y1="99" x2="400" y2="99"/><line x1="0" y1="102" x2="400" y2="102"/><line x1="0" y1="105" x2="400" y2="105"/><line x1="0" y1="108" x2="400" y2="108"/><line x1="0" y1="111" x2="400" y2="111"/><line x1="0" y1="114" x2="400" y2="114"/><line x1="0" y1="117" x2="400" y2="117"/><line x1="0" y1="120" x2="400" y2="120"/><line x1="0" y1="123" x2="400" y2="123"/><line x1="0" y1="126" x2="400" y2="126"/><line x1="0" y1="129" x2="400" y2="129"/><line x1="0" y1="132" x2="400" y2="132"/><line x1="0" y1="135" x2="400" y2="135"/><line x1="0" y1="138" x2="400" y2="138"/><line x1="0" y1="141" x2="400" y2="141"/><line x1="0" y1="144" x2="400" y2="144"/><line x1="0" y1="147" x2="400" y2="147"/><line x1="0" y1="150" x2="400" y2="150"/><line x1="0" y1="153" x2="400" y2="153"/><line x1="0" y1="156" x2="400" y2="156"/><line x1="0" y1="159" x2="400" y2="159"/><line x1="0" y1="162" x2="400" y2="162"/><line x1="0" y1="165" x2="400" y2="165"/><line x1="0" y1="168" x2="400" y2="168"/><line x1="0" y1="171" x2="400" y2="171"/><line x1="0" y1="174" x2="400" y2="174"/><line x1="0" y1="177" x2="400" y2="177"/><line x1="0" y1="180" x2="400" y2="180"/><line x1="0" y1="183" x2="400" y2="183"/><line x1="0" y1="186" x2="400" y2="186"/><line x1="0" y1="189" x2="400" y2="189"/><line x1="0" y1="192" x2="400" y2="192"/><line x1="0" y1="195" x2="400" y2="195"/><line x1="0" y1="198" x2="400" y2="198"/><line x1="0" y1="201" x2="400" y2="201"/><line x1="0" y1="204" x2="400" y2="204"/><line x1="0" y1="207" x2="400" y2="207"/><line x1="0" y1="210" x2="400" y2="210"/><line x1="0" y1="213" x2="400" y2="213"/><line x1="0" y1="216" x2="400" y2="216"/><line x1="0" y1="219" x2="400" y2="219"/><line x1="0" y1="222" x2="400" y2="222"/><line x1="0" y1="225" x2="400" y2="225"/><line x1="0" y1="228" x2="400" y2="228"/><line x1="0" y1="231" x2="400" y2="231"/><line x1="0" y1="234" x2="400" y2="234"/><line x1="0" y1="237" x2="400" y2="237"/><line x1="0" y1="240" x2="400" y2="240"/><line x1="0" y1="243" x2="400" y2="243"/><line x1="0" y1="246" x2="400" y2="246"/><line x1="0" y1="249" x2="400" y2="249"/></g>
<!-- title -->
<text x="16" y="28" font-family="ui-monospace, 'JetBrains Mono', Menlo, monospace" font-size="14" font-weight="700" fill="#ffffff" letter-spacing="2" style="text-shadow:0 0 4px #7af0ff">SUDOKU SCRIBE</text>
<text x="16" y="42" font-family="ui-monospace, 'JetBrains Mono', Menlo, monospace" font-size="8" fill="#7af0ff" letter-spacing="3" opacity="0.7">NINE&#160;BY&#160;NINE</text>
<!-- genre tag -->
<text x="384" y="240" text-anchor="end" font-family="ui-monospace, 'JetBrains Mono', Menlo, monospace" font-size="9" fill="#b8895c" letter-spacing="2">SUDOKU</text>
<!-- border -->
<rect x="1" y="1" width="398" height="248" fill="none" stroke="#b8895c" stroke-width="2"/>
</svg>
