<svg xmlns="http://www.w3.org/2000/svg" viewBox="0 0 1600 1000">
  <defs>
    <linearGradient id="sky" x1="0" y1="0" x2="1" y2="1">
      <stop stop-color="#08152f"/>
      <stop offset=".45" stop-color="#20123f"/>
      <stop offset="1" stop-color="#050816"/>
    </linearGradient>
    <linearGradient id="road" x1="0" y1="0" x2="0" y2="1">
      <stop stop-color="#4e617d"/>
      <stop offset=".35" stop-color="#1d2840"/>
      <stop offset="1" stop-color="#0a0e1d"/>
    </linearGradient>
    <radialGradient id="glow" cx=".5" cy=".5" r=".55">
      <stop stop-color="#66e9ff" stop-opacity=".8"/>
      <stop offset=".45" stop-color="#ff5f9f" stop-opacity=".28"/>
      <stop offset="1" stop-color="#050816" stop-opacity="0"/>
    </radialGradient>
    <filter id="soft"><feGaussianBlur stdDeviation="14"/></filter>
  </defs>
  <rect width="1600" height="1000" fill="url(#sky)"/>
  <circle cx="1210" cy="170" r="230" fill="url(#glow)" filter="url(#soft)"/>
  <g opacity=".36" stroke="#ffffff" stroke-width="2">
    <path d="M0 210h1600M0 360h1600M0 520h1600M190 0v620M420 0v620M690 0v620M960 0v620M1230 0v620M1460 0v620"/>
  </g>
  <g opacity=".9">
    <path d="M0 568 C220 475 340 520 500 452 C670 382 780 422 930 350 C1130 252 1320 280 1600 184 L1600 720 L0 720Z" fill="#0b1630"/>
    <path d="M0 650 C250 540 390 590 540 505 C735 394 890 462 1060 356 C1260 232 1390 250 1600 166 L1600 760 L0 760Z" fill="#111f3c"/>
  </g>
  <g opacity=".76" fill="#ffd15c">
    <rect x="165" y="410" width="70" height="150" rx="5"/>
    <rect x="247" y="360" width="96" height="200" rx="6"/>
    <rect x="1190" y="350" width="90" height="220" rx="7"/>
    <rect x="1296" y="300" width="126" height="270" rx="8"/>
  </g>
  <path d="M640 438 L960 438 L1470 1000 L130 1000 Z" fill="url(#road)"/>
  <path d="M786 448 L814 448 L790 1000 L700 1000 Z" fill="#ffd15c" opacity=".86"/>
  <path d="M900 448 L932 448 L1030 1000 L930 1000 Z" fill="#66e9ff" opacity=".68"/>
  <g stroke="#ffffff" stroke-opacity=".32" stroke-width="5">
    <path d="M626 470 L160 1000"/>
    <path d="M974 470 L1440 1000"/>
    <path d="M590 520 H1010"/>
    <path d="M515 610 H1085"/>
    <path d="M420 735 H1180"/>
    <path d="M270 900 H1330"/>
  </g>
  <g transform="translate(662 590)">
    <ellipse cx="150" cy="250" rx="260" ry="58" fill="#000" opacity=".4"/>
    <path d="M60 165 C72 86 128 52 213 58 C294 64 352 108 373 184 L346 248 L86 248 Z" fill="#ff5f9f"/>
    <path d="M103 132 C143 88 232 78 298 125 L270 166 L132 166 Z" fill="#66e9ff"/>
    <path d="M34 205 C78 160 348 160 412 207 L392 276 L54 276 Z" fill="#121a31"/>
    <path d="M90 175 H342 C386 180 420 213 424 248 C366 224 71 224 16 248 C20 214 48 184 90 175Z" fill="#ffd15c"/>
    <circle cx="100" cy="272" r="48" fill="#050816"/>
    <circle cx="330" cy="272" r="48" fill="#050816"/>
    <circle cx="100" cy="272" r="23" fill="#66e9ff"/>
    <circle cx="330" cy="272" r="23" fill="#66e9ff"/>
    <path d="M192 38 C234 16 286 43 296 87 C260 73 206 75 174 100 C166 75 171 51 192 38Z" fill="#f8fbff"/>
    <path d="M204 101 C244 70 300 82 322 126 C300 151 228 151 188 128 C187 118 193 108 204 101Z" fill="#20305a"/>
    <text x="245" y="130" text-anchor="middle" font-family="Arial, sans-serif" font-size="42" font-weight="900" fill="#ffd15c">RR</text>
  </g>
  <g transform="translate(180 158)" opacity=".96">
    <rect width="390" height="150" rx="16" fill="#071126" stroke="#66e9ff" stroke-opacity=".5"/>
    <text x="28" y="55" font-family="Arial, sans-serif" font-size="28" font-weight="900" fill="#66e9ff">SOURCE GATE</text>
    <text x="28" y="104" font-family="Arial, sans-serif" font-size="56" font-weight="900" fill="#ffffff">A B C D</text>
  </g>
</svg>
